<?xml version="1.0" encoding="UTF-8" standalone="no"?>
<!-- Generator: Adobe Illustrator 19.0.0, SVG Export Plug-In . SVG Version: 6.00 Build 0)  -->

<svg
   xmlns:dc="http://purl.org/dc/elements/1.1/"
   xmlns:cc="http://creativecommons.org/ns#"
   xmlns:rdf="http://www.w3.org/1999/02/22-rdf-syntax-ns#"
   xmlns:svg="http://www.w3.org/2000/svg"
   xmlns="http://www.w3.org/2000/svg"
   xmlns:sodipodi="http://sodipodi.sourceforge.net/DTD/sodipodi-0.dtd"
   xmlns:inkscape="http://www.inkscape.org/namespaces/inkscape"
   version="1.1"
   id="Layer_1"
   x="0px"
   y="0px"
   viewBox="0 0 508 508"
   style="fill:#000000;fill-opacity:1;stroke:none"
   xml:space="preserve"
   sodipodi:docname="alarm-bell-svgrepo-com.svg"
   inkscape:version="0.92.5 (2060ec1f9f, 2020-04-08)"><metadata
   id="metadata67"><rdf:RDF><cc:Work
       rdf:about=""><dc:format>image/svg+xml</dc:format><dc:type
         rdf:resource="http://purl.org/dc/dcmitype/StillImage" /><dc:title></dc:title></cc:Work></rdf:RDF></metadata><defs
   id="defs65" /><sodipodi:namedview
   pagecolor="#ffffff"
   bordercolor="#666666"
   borderopacity="1"
   objecttolerance="10"
   gridtolerance="10"
   guidetolerance="10"
   inkscape:pageopacity="0"
   inkscape:pageshadow="2"
   inkscape:window-width="1353"
   inkscape:window-height="755"
   id="namedview63"
   showgrid="false"
   inkscape:zoom="0.46456693"
   inkscape:cx="254"
   inkscape:cy="254"
   inkscape:window-x="719"
   inkscape:window-y="283"
   inkscape:window-maximized="0"
   inkscape:current-layer="Layer_1" />
<g
   id="g6">
	<g
   id="g4">
		<path
   d="M431.8,397.35c-30.5-25.3-48-62.6-48-102.3v-95.1c0-58.4-38.8-107.9-92-124.1c3.2-6,5.1-12.9,5.1-20.2    c0-23.6-19.2-42.8-42.8-42.8c-23.6,0-42.8,19.2-42.8,42.8c0,7.3,1.8,14.2,5.1,20.2c-53.2,16.2-92,65.7-92,124.1v95.1    c0,39.7-17.5,77-48,102.3c-7.4,6.1-10.1,15.9-6.8,25c3.3,9,11.6,14.9,21.2,14.9h123c6.6,33,35.7,57.9,70.6,57.9    c34.9,0,64-24.9,70.6-57.9h62.6c9.6,0,17.9-5.8,21.2-14.9C441.9,413.25,439.2,403.45,431.8,397.35z M254,41.05    c8,0,14.6,6.5,14.6,14.6c0,8.1-6.6,14.5-14.6,14.5s-14.6-6.5-14.6-14.6C239.4,47.45,246,41.05,254,41.05z M284.2,466.85    c-19.2,0-35.5-12.5-41.4-29.7h82.9C319.8,454.45,303.4,466.85,284.2,466.85z M105.3,408.95c30.2-30.1,47.2-70.8,47.2-113.9v-95.1    c0-56,45.5-101.5,101.5-101.5s101.5,45.5,101.5,101.5v95.1c0,43.1,17,83.8,47.2,113.9H105.3z"
   id="path2" />
	</g>
</g>
<g
   id="g12">
	<g
   id="g10">
		<path
   d="M478.9,218.65c-5.5-5.5-14.4-5.5-20,0c-5.5,5.5-5.5,14.4,0,20c13.5,13.5,20.9,31.4,20.9,50.5c0,19.1-7.4,37-20.9,50.5    c-5.5,5.5-5.5,14.5,0,20c5.8,5.8,16,4.1,20,0c18.6-19,29.1-43.8,29.1-70.4C508,262.45,497.7,237.45,478.9,218.65z"
   id="path8" />
	</g>
</g>
<g
   id="g18">
	<g
   id="g16">
		<path
   d="M438.6,259.15c-5.5-5.7-14.5-5.7-20-0.2s-5.5,14.4,0,20c2.7,2.7,4.2,6.3,4.2,10.2s-1.5,7.5-4.2,10.2    c-5.5,5.5-5.6,14.5,0,20c7.1,6.9,17.2,2.8,20,0c8-8,12.5-18.7,12.5-30.1C451.1,277.85,446.7,267.15,438.6,259.15z"
   id="path14" />
	</g>
</g>
<g
   id="g24">
	<g
   id="g22">
		<path
   d="M28.2,289.35c0-19.1,7.4-37,20.9-50.5c5.5-5.5,5.5-14.4,0-20c-5.5-5.5-14.4-5.5-20,0C10.3,237.65,0,262.65,0,289.35    c0,26.6,10.6,51.4,29.1,70.4c4,4.1,14.2,5.8,20,0c5.5-5.5,5.5-14.4,0-20C35.6,326.35,28.2,308.35,28.2,289.35z"
   id="path20" />
	</g>
</g>
<g
   id="g30">
	<g
   id="g28">
		<path
   d="M89.4,299.45c-2.7-2.7-4.2-6.3-4.2-10.2s1.5-7.5,4.2-10.2c5.5-5.5,5.5-14.4,0-20c-5.5-5.5-14.4-5.5-20,0    c-8,8-12.5,18.8-12.5,30.1c0,11.4,4.4,22.1,12.5,30.1c2.8,2.9,12.9,7.1,20,0.2C95,314.05,94.9,305.05,89.4,299.45z"
   id="path26" />
	</g>
</g>
<g
   id="g32">
</g>
<g
   id="g34">
</g>
<g
   id="g36">
</g>
<g
   id="g38">
</g>
<g
   id="g40">
</g>
<g
   id="g42">
</g>
<g
   id="g44">
</g>
<g
   id="g46">
</g>
<g
   id="g48">
</g>
<g
   id="g50">
</g>
<g
   id="g52">
</g>
<g
   id="g54">
</g>
<g
   id="g56">
</g>
<g
   id="g58">
</g>
<g
   id="g60">
</g>
</svg>