<?xml version="1.0" encoding="UTF-8" standalone="no"?>
<!-- Generator: Adobe Illustrator 19.0.0, SVG Export Plug-In . SVG Version: 6.00 Build 0)  -->

<svg
   xmlns:dc="http://purl.org/dc/elements/1.1/"
   xmlns:cc="http://creativecommons.org/ns#"
   xmlns:rdf="http://www.w3.org/1999/02/22-rdf-syntax-ns#"
   xmlns:svg="http://www.w3.org/2000/svg"
   xmlns="http://www.w3.org/2000/svg"
   xmlns:sodipodi="http://sodipodi.sourceforge.net/DTD/sodipodi-0.dtd"
   xmlns:inkscape="http://www.inkscape.org/namespaces/inkscape"
   version="1.1"
   id="Layer_1"
   x="0px"
   y="0px"
   viewBox="0 0 508 508"
   style="fill:#000000;fill-opacity:1;stroke:none"
   xml:space="preserve"
   sodipodi:docname="alarm-bell-svgrepo-com.svg"
   inkscape:version="0.92.5 (2060ec1f9f, 2020-04-08)"><metadata
   id="metadata67"><rdf:RDF><cc:Work
       rdf:about=""><dc:format>image/svg+xml</dc:format><dc:type
         rdf:resource="http://purl.org/dc/dcmitype/StillImage" /><dc:title></dc:title></cc:Work></rdf:RDF></metadata><defs
   id="defs65" /><sodipodi:namedview
   pagecolor="#ffffff"
   bordercolor="#666666"
   borderopacity="1"
   objecttolerance="10"
   gridtolerance="10"
   guidetolerance="10"
   inkscape:pageopacity="0"
   inkscape:pageshadow="2"
   inkscape:window-width="1353"
   inkscape:window-height="755"
   id="namedview63"
   showgrid="false"
   inkscape:zoom="0.46456693"
   inkscape:cx="254"
   inkscape:cy="254"
   inkscape:window-x="719"
   inkscape:window-y="283"
   inkscape:window-maximized="0"
   inkscape:current-layer="Layer_1" />
<g
   id="g6"
   style="stroke:#000000;stroke-opacity:1">
	<g
   id="g4"
   style="stroke:#000000;stroke-opacity:1">
		<path
   d="m 431.8,397.35 c -30.5,-25.3 -48,-62.6 -48,-102.3 v -95.1 c 0,-58.4 -38.8,-107.9 -92,-124.1 3.2,-6 5.1,-12.9 5.1,-20.2 0,-23.6 -19.2,-42.8 -42.8,-42.8 -23.6,0 -42.8,19.2 -42.8,42.8 0,7.3 1.8,14.2 5.1,20.2 -53.2,16.2 -92,65.7 -92,124.1 v 95.1 c 0,39.7 -17.5,77 -48,102.3 -7.4,6.1 -10.1,15.9 -6.8,25 3.3,9 11.602702,14.67226 21.2,14.9 l 90.71186,2.15254 c 6.6,33 35.7,57.9 70.6,57.9 34.9,0 64,-24.9 70.6,-57.9 L 417.6,437.25 c 9.59753,-0.21772 17.9,-5.8 21.2,-14.9 3.1,-9.1 0.4,-18.9 -7,-25 z M 254,41.05 c 8,0 14.6,6.5 14.6,14.6 0,8.1 -6.6,14.5 -14.6,14.5 -8,0 -14.6,-6.5 -14.6,-14.6 0,-8.1 6.6,-14.5 14.6,-14.5 z m -2.08814,427.95254 c -19.2,0 -35.5,-12.5 -41.4,-29.7 h 82.9 c -5.9,17.3 -22.3,29.7 -41.5,29.7 z M 105.3,408.95 c 30.2,-30.1 47.2,-70.8 47.2,-113.9 v -95.1 c 0,-56 45.5,-101.5 101.5,-101.5 56,0 101.5,45.5 101.5,101.5 v 95.1 c 0,43.1 17,83.8 47.2,113.9 H 105.3 Z"
   id="path2"
   style="stroke:#000000;stroke-opacity:1"
   inkscape:connector-curvature="0"
   sodipodi:nodetypes="csscssscssccscscsccssssssccscsssssccc" />
	</g>
</g>

<g
   id="g18">
	<g
   id="g16">
		
	</g>
</g>


<g
   id="g32">
</g>
<g
   id="g34">
</g>
<g
   id="g36">
</g>
<g
   id="g38">
</g>
<g
   id="g40">
</g>
<g
   id="g42">
</g>
<g
   id="g44">
</g>
<g
   id="g46">
</g>
<g
   id="g48">
</g>
<g
   id="g50">
</g>
<g
   id="g52">
</g>
<g
   id="g54">
</g>
<g
   id="g56">
</g>
<g
   id="g58">
</g>
<g
   id="g60">
</g>
</svg>