<?xml version="1.0" encoding="UTF-8" standalone="no"?>
<!-- Svg Vector Icons : http://www.onlinewebfonts.com/icon -->

<svg
   xmlns:dc="http://purl.org/dc/elements/1.1/"
   xmlns:cc="http://creativecommons.org/ns#"
   xmlns:rdf="http://www.w3.org/1999/02/22-rdf-syntax-ns#"
   xmlns:svg="http://www.w3.org/2000/svg"
   xmlns="http://www.w3.org/2000/svg"
   xmlns:sodipodi="http://sodipodi.sourceforge.net/DTD/sodipodi-0.dtd"
   xmlns:inkscape="http://www.inkscape.org/namespaces/inkscape"
   version="1.1"
   x="0px"
   y="0px"
   viewBox="0 0 1000 1000"
   enable-background="new 0 0 1000 1000"
   xml:space="preserve"
   id="svg8"
   sodipodi:docname="clear.svg"
   inkscape:version="0.92.3 (2405546, 2018-03-11)"><defs
   id="defs12" /><sodipodi:namedview
   pagecolor="#ffffff"
   bordercolor="#666666"
   borderopacity="1"
   objecttolerance="10"
   gridtolerance="10"
   guidetolerance="10"
   inkscape:pageopacity="0"
   inkscape:pageshadow="2"
   inkscape:window-width="721"
   inkscape:window-height="480"
   id="namedview10"
   showgrid="false"
   inkscape:zoom="0.236"
   inkscape:cx="500"
   inkscape:cy="500"
   inkscape:window-x="67"
   inkscape:window-y="27"
   inkscape:window-maximized="0"
   inkscape:current-layer="svg8" />
<metadata
   id="metadata2"> Svg Vector Icons : http://www.onlinewebfonts.com/icon <rdf:RDF><cc:Work
     rdf:about=""><dc:format>image/svg+xml</dc:format><dc:type
       rdf:resource="http://purl.org/dc/dcmitype/StillImage" /><dc:title></dc:title></cc:Work></rdf:RDF></metadata>
<g
   id="g6"
   style="stroke:#000000;stroke-opacity:1"><path
     d="m 607.47458,738.55084 c -5.6,22.3 -34.1,71.1 -79.5,136.9 12.4,2.9 24.3,6.1 36.4,8.3 22,4 44.1,7.1 66.1,11.1 7.2,1.3 10.9,-1.3 14.7,-7 44.2,-65.8 46.00169,-106.43898 75.90169,-179.63898 11.7,-28.7 21.7,-58 32.5,-87 1.1,-3 2.2,-5.9 3.5,-9.4 23.7,8.2 46.9,16.2 71.1,24.5 -4.3,12.7 -8.3,24.8 -12.6,36.7 -36.4,101.1 -47.80169,168.13898 -108.20169,257.33898 -5,7.4 -10.7,14.4 -15.6,21.8 -11.4,17.1 -27.3,22.4 -47.2,20.5 -76.8,-7.3 -151.3,-24.8 -223.4,-51.9 -131.2,-49.4 -244.2,-125 -333.699999,-234 -10.7,-13.1 -13.800005,-27.5 -6.8,-42.9 6.8,-14.8 19.699999,-21.5 35.599999,-21.7 68.2,-0.9 133.9,-14.6 197.5,-38.6 57.5,-21.7 76.00169,-22.23898 116.40169,-69.83898 11.7,-13.8 21.2,-29.4 32.3,-45 20.8,11.7 42.2,23.8 65.7,37 -12.2,17.6 -23,35.3 -35.8,51.4 -31.2,39.5 -36.70169,39.73898 -80.30169,64.03898 -65.8,36.6 -136.9,57.7 -210.9,69.7 -1.5,0.2 -2.9,0.5 -6.5,1.2 10.6,9.7 19.5,18.8 29.3,26.7 18.4,14.9 37.1,29.4 56.2,43.4 3.7,2.7 10.2,3.9 14.8,2.9 38,-8.6 72.8,-23.8 102,-50.8 -2.5,13.3 -26.5,47 -60.2,84.6 21.2,10.5 42.5,19.8 62.5,31.5 25.8,15.2 50.5,11 75.8,0.1 42.8,-18.5 79.5,-46.1 114.6,-76.2 17.8,-15.7 11.1,-9.8 17.8,-15.7 z M 850.87627,573.11186 c -120.1,-53.4 -239.3,-106.5 -359.4,-159.9 9.9,-23.1 25.5,-40.6 46.6,-53 35.2,-20.7 72,-23.1 109.3,-6.8 48,20.9 96,42 143.5,64 55.8,25.9 82.1,84 65.1,141.7 -1.4,4.5 -3.2,8.8 -5.1,14 z m -53.3,-209.3 c -37.8,-16.8 -75.2,-33.5 -112.5,-50.1 -0.8,-0.4 -1.3,-1.2 -2.4,-2.2 1.4,-2.8 2.7,-5.7 4.2,-8.4 46.8,-87.7 93.5,-175.3 140.3,-262.999996 7.8,-14.7 16.9,-19.1 33.8,-16.6 15.5,2.3 28.6,8.9 38.7,21 6.6,8 8.3,16.7 4.6,26.8 -34.9,95.999996 -69.6,192.199996 -104.4,288.199996 -0.5,1 -1.2,2.1 -2.3,4.3 z"
     id="path4"
     inkscape:connector-curvature="0"
     sodipodi:nodetypes="ccscccccccccccccccccccccccccccccccccccccccccccccccc"
     style="stroke:#000000;stroke-opacity:1" /></g>
</svg>