<?xml version="1.0" encoding="UTF-8" standalone="no"?>
<!-- Generator: Adobe Illustrator 19.0.0, SVG Export Plug-In . SVG Version: 6.00 Build 0)  -->

<svg
   xmlns:dc="http://purl.org/dc/elements/1.1/"
   xmlns:cc="http://creativecommons.org/ns#"
   xmlns:rdf="http://www.w3.org/1999/02/22-rdf-syntax-ns#"
   xmlns:svg="http://www.w3.org/2000/svg"
   xmlns="http://www.w3.org/2000/svg"
   xmlns:sodipodi="http://sodipodi.sourceforge.net/DTD/sodipodi-0.dtd"
   xmlns:inkscape="http://www.inkscape.org/namespaces/inkscape"
   version="1.1"
   id="Capa_1"
   x="0px"
   y="0px"
   viewBox="0 0 512 512"
   style="enable-background:new 0 0 512 512;"
   xml:space="preserve"
   inkscape:version="0.92.4 (33fec40, 2019-01-16)"
   sodipodi:docname="colored-charts.svg"><metadata
     id="metadata95"><rdf:RDF><cc:Work
         rdf:about=""><dc:format>image/svg+xml</dc:format><dc:type
           rdf:resource="http://purl.org/dc/dcmitype/StillImage" /><dc:title></dc:title></cc:Work></rdf:RDF></metadata><defs
     id="defs93" /><sodipodi:namedview
     pagecolor="#ffffff"
     bordercolor="#666666"
     borderopacity="1"
     objecttolerance="10"
     gridtolerance="10"
     guidetolerance="10"
     inkscape:pageopacity="0"
     inkscape:pageshadow="2"
     inkscape:window-width="1855"
     inkscape:window-height="1056"
     id="namedview91"
     showgrid="false"
     inkscape:zoom="0.921875"
     inkscape:cx="87.089353"
     inkscape:cy="134.35202"
     inkscape:window-x="1985"
     inkscape:window-y="24"
     inkscape:window-maximized="1"
     inkscape:current-layer="Capa_1"
     inkscape:pagecheckerboard="true" /><path
     inkscape:connector-curvature="0"
     id="path11"
     d="M 19.263125,454.70255 4.9198242,439.6359 129.08837,312.30861 c 3.3088,-3.38461 8.39085,-4.03244 12.39596,-1.59158 l 114.84607,70.1357 117.30485,-121.59757 c 3.74939,-3.89442 9.76309,-4.17047 13.83065,-0.63664 l 122.93915,106.10567 -13.1139,16.33992 -115.7681,-99.95193 -116.27956,120.53692 c -3.31961,3.43808 -8.47249,4.08468 -12.49921,1.59159 L 137.89941,333.10499 19.263125,454.70255 Z"
     style="fill:#ca00ff;fill-opacity:1;stroke:#ca00ff;stroke-width:1.2218163;stroke-opacity:1" /><path
     inkscape:connector-curvature="0"
     id="path21"
     d="M 18.961624,349.76974 5.1376864,332.51588 127.58985,207.1894 241.686,66.59006 c 2.6306,-3.183258 6.61275,-4.441535 10.31566,-3.263867 L 381.77743,107.0449 502.06322,28.001488 512.37889,48.053332 388.58604,129.66113 c -2.4553,1.64355 -5.40505,2.06297 -8.14929,1.16538 L 252.51788,87.691178 142.1355,223.74377 18.961624,349.76974 Z"
     style="fill:#0000fc;fill-opacity:1" /><rect
     y="18.915119"
     style="fill:#000000;fill-opacity:0"
     width="28.962713"
     height="18.915121"
     id="rect55"
     x="-2.1694915" /><g
     id="g61" /><g
     id="g63" /><g
     id="g65" /><g
     id="g67" /><g
     id="g69" /><g
     id="g71" /><g
     id="g73" /><g
     id="g75" /><g
     id="g77" /><g
     id="g79" /><g
     id="g81" /><g
     id="g83" /><g
     id="g85" /><g
     id="g87" /><g
     id="g89" /></svg>