<?xml version="1.0" encoding="utf-8"?>
<!-- Svg Vector Icons : http://www.onlinewebfonts.com/icon -->
<!DOCTYPE svg PUBLIC "-//W3C//DTD SVG 1.1//EN" "http://www.w3.org/Graphics/SVG/1.1/DTD/svg11.dtd">
<svg version="1.1" xmlns="http://www.w3.org/2000/svg" xmlns:xlink="http://www.w3.org/1999/xlink" x="0px" y="0px" viewBox="0 0 1000 1000" enable-background="new 0 0 1000 1000" xml:space="preserve">
<metadata> Svg Vector Icons : http://www.onlinewebfonts.com/icon </metadata>
<g><path d="M500,10C293.5,10,71.3,72.3,71.3,209.1v581.8C71.3,927.7,293.4,990,500,990s428.8-62.3,428.8-199.1V209.1C928.8,72.3,706.5,10,500,10z M867.6,790.9C867.6,867,703,928.8,500,928.8c-202.9,0-367.5-61.7-367.5-137.8V676.5c63.4,65.2,216,99.1,367.5,99.1c151.7,0,304.3-33.9,367.6-99.1V790.9z M867.6,607.2h-0.1c0,0.3,0.1,0.6,0.1,1C867.6,683.8,702.9,745,500,745s-367.5-61.3-367.5-136.9c0-0.4,0.1-0.7,0.1-1h-0.1V492.7c63.3,65.2,216,99.1,367.5,99.1c151.7,0,304.3-33.9,367.6-99.1V607.2z M867.6,423.4h-0.1c0,0.3,0.1,0.7,0.1,1c0,75.6-164.6,136.9-367.6,136.9S132.5,500,132.5,424.4c0-0.3,0.1-0.7,0.1-1h-0.1V318.2c80.3,61.2,227.5,90,367.5,90c140.1,0,287.3-28.7,367.6-89.9V423.4z M500,346.8c-202.9,0-367.5-61.7-367.5-137.8c0-76.2,164.6-137.8,367.5-137.8c203.1,0,367.6,61.6,367.6,137.8C867.6,285.2,703,346.8,500,346.8z M775.7,836.8c16.9,0,30.7-13.7,30.7-30.7c0-16.8-13.7-30.7-30.7-30.7S745,789.3,745,806.2C744.9,823.1,758.7,836.8,775.7,836.8z M775.7,653.2c16.9,0,30.7-13.6,30.7-30.7c0-16.9-13.7-30.7-30.7-30.7S745,605.5,745,622.5C744.9,639.5,758.7,653.2,775.7,653.2z M775.7,469.3c16.9,0,30.7-13.7,30.7-30.7S792.7,408,775.7,408S745,421.7,745,438.7C744.9,455.6,758.7,469.3,775.7,469.3z"/></g>
</svg>