<?xml version="1.0" encoding="UTF-8" standalone="no"?>
<svg
   xmlns:dc="http://purl.org/dc/elements/1.1/"
   xmlns:cc="http://creativecommons.org/ns#"
   xmlns:rdf="http://www.w3.org/1999/02/22-rdf-syntax-ns#"
   xmlns:svg="http://www.w3.org/2000/svg"
   xmlns="http://www.w3.org/2000/svg"
   xmlns:sodipodi="http://sodipodi.sourceforge.net/DTD/sodipodi-0.dtd"
   xmlns:inkscape="http://www.inkscape.org/namespaces/inkscape"
   inkscape:version="0.92.3 (2405546, 2018-03-11)"
   sodipodi:docname="datetime.svg"
   id="svg40"
   xml:space="preserve"
   enable-background="new 0 0 1000 1000"
   viewBox="0 0 1000 1000"
   y="0px"
   x="0px"
   version="1.1"><defs
   id="defs44" /><sodipodi:namedview
   inkscape:current-layer="svg40"
   inkscape:window-maximized="1"
   inkscape:window-y="27"
   inkscape:window-x="67"
   inkscape:cy="500"
   inkscape:cx="500"
   inkscape:zoom="0.932"
   inkscape:pagecheckerboard="true"
   showgrid="false"
   id="namedview42"
   inkscape:window-height="1385"
   inkscape:window-width="2493"
   inkscape:pageshadow="2"
   inkscape:pageopacity="0"
   guidetolerance="10"
   gridtolerance="10"
   objecttolerance="10"
   borderopacity="1"
   bordercolor="#666666"
   pagecolor="#ffffff" />
<metadata
   id="metadata2"> Svg Vector Icons : http://www.onlinewebfonts.com/icon <rdf:RDF><cc:Work
     rdf:about=""><dc:format>image/svg+xml</dc:format><dc:type
       rdf:resource="http://purl.org/dc/dcmitype/StillImage" /><dc:title /></cc:Work></rdf:RDF></metadata>
<g
   style="fill:#000000;fill-opacity:1"
   id="g38"
   transform="matrix(0.95198405,0,0,0.90365287,24.544538,53.538559)"><g
     style="fill:#000000;fill-opacity:1"
     id="g36"
     transform="matrix(0.1,0,0,-0.1,0,511)"><path
       style="fill:#000000;fill-opacity:1"
       id="path4"
       d="m 1536.9,4964.3 c -98,-60.7 -149.4,-179.7 -149.4,-350.1 v -142.4 h -291.7 c -196,0 -317.4,-11.7 -368.7,-32.7 -102.7,-42 -200.7,-144.7 -259,-270.7 l -49,-105 V 1029.7 c 0,-2730.4 4.7,-3043.1 37.3,-3115.4 58.3,-126 151.7,-224 273,-284.7 l 109.7,-53.7 H 2041 c 1019.8,0 1201.8,4.7 1194.8,32.7 -4.7,18.7 -14,135.4 -21,261.4 l -14,231 -1122.5,4.7 -1122.5,7 V 341.3 2569.9 l 2749,7 2746.7,4.7 v -490.1 -490.1 h 217 c 116.7,0 238,-7 268.4,-14 l 51.3,-14 v 1197.2 c 0,707.1 -11.7,1241.5 -23.3,1299.8 -32.7,140 -130.7,277.7 -245,345.4 -91,51.3 -121.4,56 -403.7,56 h -308 v 158.7 c 0,179.7 -49,284.7 -161,343.1 -231,116.7 -443.4,-58.3 -445.7,-366.4 V 4471.9 H 3697.9 1994.3 v 140 c 0,77 -14,177.4 -32.7,221.7 -65.3,156.3 -275.3,221.7 -424.7,130.7 z m -105,-1514.6 c 39.7,-77 163.4,-144.7 259,-144.7 184.4,0 303.4,147 303.4,378.1 l 2.3,123.7 77,-86.3 c 182,-207.7 170.4,-473.7 -30.3,-674.4 -207.7,-207.7 -478.4,-214.7 -693.1,-16.3 -198.4,182 -219.4,478.4 -49,683.8 l 74.7,91 14,-149.3 c 7,-84.2 25.7,-175.2 42,-205.6 z m 4030.2,-14 c 51.3,-79.3 149.4,-130.7 247.4,-130.7 184.3,0 298.7,137.7 298.7,359.4 l 2.3,142.4 79.4,-86.3 c 266,-287 81.7,-772.4 -317.4,-826.1 -459.7,-63 -749.1,504.1 -431.7,849.4 l 49,56 16.3,-151.7 c 7,-84 32.7,-179.7 56,-212.4 z"
       inkscape:connector-curvature="0" /><path
       style="fill:#000000;fill-opacity:1"
       id="path6"
       d="m 2321,1893.2 v -338.4 h 350 350 v 338.4 338.4 h -350 -350 z"
       inkscape:connector-curvature="0" /><path
       style="fill:#000000;fill-opacity:1"
       id="path8"
       d="m 3347.8,1893.2 v -338.4 h 350.1 350 v 338.4 338.4 h -350 -350.1 z"
       inkscape:connector-curvature="0" /><path
       style="fill:#000000;fill-opacity:1"
       id="path10"
       d="m 4398,1893.2 v -338.4 h 338.4 338.4 v 338.4 338.4 H 4736.4 4398 Z"
       inkscape:connector-curvature="0" /><path
       style="fill:#000000;fill-opacity:1"
       id="path12"
       d="m 5424.8,1893.2 v -338.4 h 338.4 338.4 v 338.4 338.4 h -338.4 -338.4 z"
       inkscape:connector-curvature="0" /><path
       style="fill:#000000;fill-opacity:1"
       id="path14"
       d="M 1294.2,854.7 V 502.3 l 345.4,7 343.1,7 v 338.4 338.4 l -343.1,7 -345.4,7 V 854.7 Z"
       inkscape:connector-curvature="0" /><path
       style="fill:#000000;fill-opacity:1"
       id="path16"
       d="m 2325.7,861.7 7,-345.4 h 338.4 338.4 l 7,345.4 7,343.1 h -352.4 -352.4 z"
       inkscape:connector-curvature="0" /><path
       style="fill:#000000;fill-opacity:1"
       id="path18"
       d="m 3357.2,1174.4 c -4.7,-16.3 -7,-172.7 -4.7,-345.4 l 7,-312.7 345.4,-7 343.1,-7 v 352.4 350 h -338.4 c -256.8,0.1 -343.1,-6.9 -352.4,-30.3 z"
       inkscape:connector-curvature="0" /><path
       style="fill:#000000;fill-opacity:1"
       id="path20"
       d="M 4398,994.7 V 782.4 l 149.4,114.3 c 81.7,63 212.4,154 291.7,203 79.3,49 142.4,91 142.4,95.7 0,4.7 -130.7,9.3 -291.7,9.3 H 4398 Z"
       inkscape:connector-curvature="0" /><path
       style="fill:#000000;fill-opacity:1"
       id="path22"
       d="M 6043.2,1088.1 C 5445.8,966.7 4969.7,710 4535.7,273.6 3982.6,-281.8 3697.9,-918.9 3658.2,-1689 c -70,-1393.2 870.5,-2665 2224,-3008.1 714.1,-179.7 1435.2,-98 2095.6,238 536.7,273 1033.8,772.5 1304.5,1311.5 331.4,662.8 392.1,1549.6 156.4,2256.7 C 9189,-148.8 8654.6,472 7961.5,822 c -259,130.7 -553.1,231 -819.1,277.7 -287.1,49 -826.2,44.4 -1099.2,-11.6 z M 7179.7,416 c 840.1,-226.4 1449.2,-833.1 1680.2,-1680.2 74.7,-270.7 72.3,-847.1 -2.4,-1124.8 -228.7,-854.1 -910.1,-1509.9 -1764.2,-1694.2 -224,-46.7 -683.8,-53.7 -886.8,-11.7 -961.5,198.4 -1659.2,896.1 -1857.6,1857.6 -42,200.7 -35,662.8 14,886.8 114.3,536.7 438.7,1043.2 884.5,1381.5 256.7,193.7 707.1,380.4 1052.5,434 170.4,28 702.4,-2.3 879.8,-49 z"
       inkscape:connector-curvature="0" /><path
       style="fill:#000000;fill-opacity:1"
       id="path24"
       d="m 6386.2,-169.8 c -42,-28 -95.7,-81.7 -121.3,-123.7 -44.4,-72.3 -46.7,-119 -46.7,-917.1 0,-767.7 4.7,-849.4 44.3,-935.8 23.3,-51.3 70,-116.7 102.7,-142.4 32.7,-25.7 396.7,-175 807.5,-333.7 800.4,-305.7 851.8,-317.4 996.4,-221.7 186.7,121.4 200.7,427.1 25.7,564.8 -30.3,23.3 -329.1,147 -665.1,275.4 l -611.4,233.4 v 683.8 c 0,758.4 -7,795.8 -147,896.1 -100.3,72.3 -284.7,81.6 -385.1,20.9 z"
       inkscape:connector-curvature="0" /><path
       style="fill:#000000;fill-opacity:1"
       id="path26"
       d="m 1294.2,-172.1 v -352.4 l 345.4,7 343.1,7 v 338.4 338.4 l -343.1,7 -345.4,7 z"
       inkscape:connector-curvature="0" /><path
       style="fill:#000000;fill-opacity:1"
       id="path28"
       d="m 2337.4,163.9 c -9.3,-9.3 -16.3,-168 -16.3,-352.4 v -333.7 h 350 352.4 l -7,345.4 -7,343.1 -329,7 c -179.8,2.3 -333.8,-2.4 -343.1,-9.4 z"
       inkscape:connector-curvature="0" /><path
       style="fill:#000000;fill-opacity:1"
       id="path30"
       d="m 3357.2,147.6 c -4.7,-16.3 -7,-172.7 -4.7,-345.4 7,-296.4 9.3,-312.7 56,-319.7 39.7,-4.7 56,14 88.7,98 23.3,58.3 107.3,217 189,352.4 l 147,245 h -231 c -170.4,0 -235.7,-9.3 -245,-30.3 z"
       inkscape:connector-curvature="0" /><path
       style="fill:#000000;fill-opacity:1"
       id="path32"
       d="m 1310.6,-862.9 c -9.3,-9.3 -16.3,-168 -16.3,-352.4 v -336 l 345.4,7 343.1,7 v 338.4 338.4 l -329,7 c -179.9,2.3 -333.9,-2.4 -343.2,-9.4 z"
       inkscape:connector-curvature="0" /><path
       style="fill:#000000;fill-opacity:1"
       id="path34"
       d="m 2337.4,-862.9 c -9.3,-9.3 -16.3,-168 -16.3,-352.4 V -1549 h 350 352.4 l -7,345.4 -7,343 -329,7 c -179.8,2.4 -333.8,-2.3 -343.1,-9.3 z"
       inkscape:connector-curvature="0" /></g></g>
</svg>