<?xml version="1.0" encoding="UTF-8" standalone="no"?>
<svg
   xmlns:dc="http://purl.org/dc/elements/1.1/"
   xmlns:cc="http://creativecommons.org/ns#"
   xmlns:rdf="http://www.w3.org/1999/02/22-rdf-syntax-ns#"
   xmlns:svg="http://www.w3.org/2000/svg"
   xmlns="http://www.w3.org/2000/svg"
   xmlns:sodipodi="http://sodipodi.sourceforge.net/DTD/sodipodi-0.dtd"
   xmlns:inkscape="http://www.inkscape.org/namespaces/inkscape"
   version="1.1"
   id="Capa_1"
   x="0px"
   y="0px"
   viewBox="0 0 469 469"
   style="enable-background:new 0 0 469 469;"
   xml:space="preserve"
   sodipodi:docname="expand.svg"
   inkscape:version="0.92.3 (2405546, 2018-03-11)"><metadata
   id="metadata1019"><rdf:RDF><cc:Work
       rdf:about=""><dc:format>image/svg+xml</dc:format><dc:type
         rdf:resource="http://purl.org/dc/dcmitype/StillImage" /><dc:title /></cc:Work></rdf:RDF></metadata><defs
   id="defs1017">
	

		
		
		
	</defs><sodipodi:namedview
   pagecolor="#ffffff"
   bordercolor="#666666"
   borderopacity="1"
   objecttolerance="10"
   gridtolerance="10"
   guidetolerance="10"
   inkscape:pageopacity="0"
   inkscape:pageshadow="2"
   inkscape:window-width="2493"
   inkscape:window-height="1385"
   id="namedview1015"
   showgrid="false"
   inkscape:pagecheckerboard="true"
   inkscape:zoom="1.2785214"
   inkscape:cx="57.391891"
   inkscape:cy="191.66065"
   inkscape:window-x="67"
   inkscape:window-y="27"
   inkscape:window-maximized="1"
   inkscape:current-layer="Capa_1"
   inkscape:document-rotation="0" />
<path
   d="M 437.19448,20.45734 H 32.905871 c -6.860101,0 -12.348181,5.488081 -12.348181,12.348182 V 197.21927 c 0,6.8601 5.48808,12.34818 12.348181,12.34818 6.860101,0 12.348181,-5.48808 12.348181,-12.34818 V 45.153703 H 424.8463 V 424.74595 H 269.12201 c -6.8601,0 -12.34818,5.48807 -12.34818,12.34818 0,6.8601 5.48808,12.34818 12.34818,12.34818 h 168.07247 c 6.8601,0 12.34818,-5.48808 12.34818,-12.34818 V 32.805522 c 0,-6.860101 -5.48808,-12.348182 -12.34818,-12.348182 z"
   id="path974"
   sodipodi:nodetypes="sssssscccsssssss"
   style="stroke:#000000;stroke-width:0.91468;stroke-opacity:1;fill:#000000;fill-opacity:1" /><path
   d="M 214.81715,236.78471 H 35.492215 c -8.296959,0 -14.934525,6.74747 -14.934525,15.18179 v 182.29401 c 0,8.43433 6.637566,15.1818 14.934525,15.1818 H 214.81715 c 8.29696,0 14.93452,-6.74747 14.93452,-15.1818 V 251.9665 c 0,-8.32187 -6.74819,-15.18179 -14.93452,-15.18179 z M 199.88262,419.07872 H 50.42674 v -151.9304 h 149.45588 z"
   id="path976"
   style="stroke:#000000;stroke-width:1.11538;stroke-opacity:1;fill:#000000;fill-opacity:1" /><path
   d="m 367.59681,122.28681 v 65.39963 c 0,6.86009 5.48808,12.34818 12.34818,12.34818 6.8601,0 12.34819,-5.48809 12.34819,-12.34818 V 92.468237 c 0,-6.860101 -5.48809,-12.348181 -12.34819,-12.348181 H 284.7268 c -6.8601,0 -12.34818,5.48808 -12.34818,12.348181 0,6.860101 5.48808,12.348183 12.34818,12.348183 h 65.39963 l -100.44137,97.15919 c -4.92765,4.76662 -4.84781,12.62259 0,17.47038 2.37817,2.37817 5.57954,3.65873 8.68946,3.65873 3.10991,0 6.31129,-1.18909 8.68946,-3.65873 z"
   id="path978"
   sodipodi:nodetypes="csssssssscssscc"
   style="stroke:#000000;stroke-width:0.91468;stroke-opacity:1;fill:#000000;fill-opacity:1" />
<g
   id="g984">
</g>
<g
   id="g986">
</g>
<g
   id="g988">
</g>
<g
   id="g990">
</g>
<g
   id="g992">
</g>
<g
   id="g994">
</g>
<g
   id="g996">
</g>
<g
   id="g998">
</g>
<g
   id="g1000">
</g>
<g
   id="g1002">
</g>
<g
   id="g1004">
</g>
<g
   id="g1006">
</g>
<g
   id="g1008">
</g>
<g
   id="g1010">
</g>
<g
   id="g1012">
</g>
</svg>