<?xml version="1.0" encoding="UTF-8" standalone="no"?>
<svg
   xmlns:dc="http://purl.org/dc/elements/1.1/"
   xmlns:cc="http://creativecommons.org/ns#"
   xmlns:rdf="http://www.w3.org/1999/02/22-rdf-syntax-ns#"
   xmlns:svg="http://www.w3.org/2000/svg"
   xmlns="http://www.w3.org/2000/svg"
   xmlns:sodipodi="http://sodipodi.sourceforge.net/DTD/sodipodi-0.dtd"
   xmlns:inkscape="http://www.inkscape.org/namespaces/inkscape"
   width="300"
   height="300"
   viewBox="0 0 300.00001 300"
   overflow="visible"
   enable-background="new 0 0 617.0444 301"
   xml:space="preserve"
   version="1.1"
   id="svg865"
   sodipodi:docname="Fx.svg"
   style="overflow:visible"
   inkscape:version="1.0.1 (3bc2e813f5, 2020-09-07)"><metadata
   id="metadata871"><rdf:RDF><cc:Work
       rdf:about=""><dc:format>image/svg+xml</dc:format><dc:type
         rdf:resource="http://purl.org/dc/dcmitype/StillImage" /><dc:title /></cc:Work></rdf:RDF></metadata><defs
   id="defs869" /><sodipodi:namedview
   pagecolor="#ffffff"
   bordercolor="#666666"
   borderopacity="1"
   objecttolerance="10"
   gridtolerance="10"
   guidetolerance="10"
   inkscape:pageopacity="0"
   inkscape:pageshadow="2"
   inkscape:window-width="1853"
   inkscape:window-height="1025"
   id="namedview867"
   showgrid="false"
   inkscape:pagecheckerboard="true"
   inkscape:zoom="2.148954"
   inkscape:cx="166.59267"
   inkscape:cy="150.5"
   inkscape:window-x="67"
   inkscape:window-y="27"
   inkscape:window-maximized="1"
   inkscape:current-layer="svg865"
   inkscape:document-rotation="0" />
			<path
   d="m 163.83231,89.879557 -2.64494,9.192641 h -21.67996 l -17.42196,63.461862 c -8.03027,27.2738 -15.68758,48.42184 -22.989342,63.43601 -10.362952,21.19043 -21.515125,35.82425 -33.447746,43.90165 -9.070902,6.17627 -18.150462,9.26867 -27.230021,9.26867 -5.914252,0 -10.952704,-1.7321 -15.09793,-5.18779 -3.052531,-2.40803 -4.587455,-5.53418 -4.587455,-9.37854 0,-3.07553 1.248763,-5.74539 3.720314,-8.00127 2.488867,-2.26442 5.53274,-3.38808 9.131619,-3.38808 2.636277,0 4.847642,0.81111 6.642752,2.45021 1.812426,1.62223 2.705652,3.49796 2.705652,5.61021 0,2.11226 -0.945285,4.07246 -2.835745,5.89747 -1.439574,1.34342 -2.159306,2.34887 -2.159306,3.0248 0,0.86184 0.346879,1.53776 1.02332,2.01935 0.87591,0.66749 2.237339,1.00547 4.075851,1.00547 4.179858,0 8.567955,-1.2927 13.172726,-3.86124 4.622198,-2.57697 8.724023,-6.41289 12.305474,-11.50767 3.598879,-5.11175 6.989631,-12.47094 10.198229,-22.09444 1.439574,-3.97955 5.298528,-17.09258 11.585744,-39.33065 L 116.258,99.072311 H 87.978681 l 2.098588,-9.192646 c 9.010181,0 15.306051,-0.540744 18.896171,-1.639102 3.58156,-1.098357 6.86819,-3.193738 9.85135,-6.294577 2.98316,-3.092403 6.53863,-8.879979 10.66654,-17.362944 5.53274,-11.431639 10.82261,-20.294747 15.88704,-26.589325 6.92891,-8.474422 14.21336,-14.8367 21.85335,-19.078075 7.63998,-4.241374 14.83774,-6.362169 21.5845,-6.362169 7.11972,0 12.83451,1.833444 17.14446,5.483461 4.30995,3.658454 6.46926,7.621129 6.46926,11.896354 0,3.328925 -1.12733,6.12565 -3.36478,8.406829 -2.23745,2.281181 -5.10783,3.413497 -8.61125,3.413497 -3.0179,0 -5.48068,-0.853401 -7.3798,-2.568531 -1.89911,-1.706694 -2.8444,-3.751461 -2.8444,-6.134085 0,-1.520895 0.6417,-3.396516 1.94252,-5.635518 1.29216,-2.230567 1.94252,-3.734482 1.94252,-4.494984 0,-1.326552 -0.4076,-2.323466 -1.20536,-2.99096 -1.16207,-0.946301 -2.86172,-1.427887 -5.09917,-1.427887 -5.63675,0 -10.68386,1.977067 -15.15865,5.92287 -5.99229,5.238506 -11.35164,13.425685 -16.08651,24.578517 -2.41949,5.829862 -7.18044,19.449889 -14.28273,40.876845 h 21.54998 z"
   id="path857"
   inkscape:connector-curvature="0"
   style="fill:#000000;fill-opacity:1;stroke-width:1.09565" />
			
			<path
   d="m 203.71908,128.51486 c 4.97531,5.31907 8.73623,10.62889 11.28275,15.93883 1.81249,3.78368 4.80305,13.72717 8.95373,29.81223 l 13.37618,-20.609 c 3.54342,-4.98999 7.84803,-9.75152 12.91393,-14.28458 5.06591,-4.53307 9.52456,-7.63123 13.38523,-9.2946 2.42879,-1.04184 5.11126,-1.56276 8.04743,-1.56276 4.35901,0 7.82993,1.21556 10.41276,3.62832 2.58283,2.41276 3.87877,5.35556 3.87877,8.81028 0,3.9939 -0.7613,6.72648 -2.27462,8.18876 -2.82748,2.6321 -6.05375,3.93903 -9.68777,3.93903 -2.12058,0 -4.38627,-0.48442 -6.80589,-1.4714 -4.74876,-1.74561 -7.92957,-2.62298 -9.54277,-2.62298 -2.42878,0 -5.30149,1.45315 -8.62742,4.35034 -6.25303,5.38305 -13.72047,15.78348 -22.40229,31.19227 l 12.49703,52.68834 c 1.88498,8.0974 3.47092,12.94117 4.75781,14.53142 1.28689,1.59026 2.57379,2.38539 3.86056,2.38539 2.08439,0 4.51306,-1.17895 7.28624,-3.53684 5.4465,-4.71591 10.10455,-10.87573 13.97428,-18.47957 l 5.36495,2.77832 c -6.34375,12.10954 -14.39118,22.16265 -24.15133,30.15955 -5.53709,4.50569 -10.21335,6.7631 -14.03772,6.7631 -5.63686,0 -10.11372,-3.18051 -13.43047,-9.53218 -2.12058,-4.00302 -6.48875,-21.23966 -13.12238,-51.72816 -16.00426,27.74679 -28.82759,45.60484 -38.47,53.58338 -6.26209,5.11797 -12.31584,7.67696 -18.16114,7.67696 -4.10532,0 -7.83898,-1.48053 -11.22835,-4.42345 -2.46498,-2.23003 -3.69747,-5.2277 -3.69747,-8.99301 0,-3.34499 1.1238,-6.14157 3.37128,-8.38073 2.24748,-2.23003 5.0115,-3.35412 8.27397,-3.35412 3.26247,0 6.74244,1.709 10.42181,5.10885 2.65533,2.44938 4.70341,3.66483 6.1353,3.66483 1.22344,0 2.80938,-0.81338 4.74876,-2.4585 4.80305,-3.89329 11.33704,-12.31052 19.61113,-25.23343 8.27409,-12.92292 13.69332,-22.25401 16.2489,-28.00263 -6.31649,-25.38937 -9.72396,-38.82408 -10.23146,-40.29548 -2.32902,-6.79047 -5.36495,-11.59774 -9.09872,-14.42169 -3.73377,-2.81495 -9.24372,-4.23148 -16.51175,-4.23148 -2.31998,0 -5.00246,0.10973 -8.02933,0.3107 v -5.57491 z"
   id="path861"
   inkscape:connector-curvature="0"
   style="fill:#000000;fill-opacity:1;stroke-width:1.1649" />
			
</svg>
