<?xml version="1.0" encoding="UTF-8" standalone="no"?>
<svg
   xmlns:dc="http://purl.org/dc/elements/1.1/"
   xmlns:cc="http://creativecommons.org/ns#"
   xmlns:rdf="http://www.w3.org/1999/02/22-rdf-syntax-ns#"
   xmlns:svg="http://www.w3.org/2000/svg"
   xmlns="http://www.w3.org/2000/svg"
   xmlns:sodipodi="http://sodipodi.sourceforge.net/DTD/sodipodi-0.dtd"
   xmlns:inkscape="http://www.inkscape.org/namespaces/inkscape"
   inkscape:version="0.92.3 (2405546, 2018-03-11)"
   sodipodi:docname="grid.svg"
   id="svg10"
   xml:space="preserve"
   enable-background="new 0 0 1000 1000"
   viewBox="0 0 1000 1000"
   y="0px"
   x="0px"
   version="1.1"><defs
   id="defs14" /><sodipodi:namedview
   inkscape:current-layer="svg10"
   inkscape:window-maximized="1"
   inkscape:window-y="27"
   inkscape:window-x="67"
   inkscape:cy="500"
   inkscape:cx="309.01288"
   inkscape:zoom="0.932"
   inkscape:pagecheckerboard="true"
   showgrid="false"
   id="namedview12"
   inkscape:window-height="1385"
   inkscape:window-width="2493"
   inkscape:pageshadow="2"
   inkscape:pageopacity="0"
   guidetolerance="10"
   gridtolerance="10"
   objecttolerance="10"
   borderopacity="1"
   bordercolor="#666666"
   pagecolor="#ffffff" />
<metadata
   id="metadata2"> Svg Vector Icons : http://www.onlinewebfonts.com/icon <rdf:RDF><cc:Work
     rdf:about=""><dc:format>image/svg+xml</dc:format><dc:type
       rdf:resource="http://purl.org/dc/dcmitype/StillImage" /><dc:title /></cc:Work></rdf:RDF></metadata>
<g
   style="fill:#000000;fill-opacity:1"
   id="g8"
   transform="matrix(0.91460023,0,0,0.91025949,39.480335,44.871152)"><g
     style="fill:#000000;fill-opacity:1"
     id="g6"
     transform="matrix(0.1,0,0,-0.1,0,511)"><path
       style="fill:#000000;fill-opacity:1"
       id="path4"
       d="M 521.3,4979.1 C 356.5,4920.5 161.3,4716.7 117.9,4558.3 102.7,4502 98.3,3057.5 100.5,64.4 l 6.5,-4411.5 58.6,-101.9 c 32.5,-54.2 104.1,-138.8 158.3,-186.5 193,-169.2 -210.4,-156.2 4673.9,-156.2 4975.4,0 4493.9,-19.5 4708.6,193 212.6,214.7 193,-266.8 193,4708.6 0,4975.4 19.5,4493.9 -193,4708.6 -214.7,212.5 268.9,193 -4717.3,193 -3669.7,-2 -4396.3,-6.3 -4467.8,-32.4 z M 2308.4,3721.2 V 2799.4 H 1386.6 464.9 v 841.5 c 0,629 6.5,852.4 28.2,893.6 52.1,104.1 75.9,108.4 976,108.4 h 839.4 v -921.7 z m 2494.3,0 V 2799.4 H 3739.9 2677.2 v 921.8 921.8 h 1062.7 1062.8 z m 2515.9,0 V 2799.4 H 6255.8 5193.1 v 921.8 921.8 h 1062.8 1062.7 z m 2090.8,900.1 c 117.1,-43.4 121.4,-75.9 121.4,-986.8 v -835 H 8609 7687.2 v 921.8 921.7 h 832.9 c 479.3,0 856.7,-8.7 889.3,-21.7 z M 2308.4,1367.9 V 305.2 H 1386.6 464.9 V 1368 2430.8 h 921.8 921.8 V 1367.9 Z m 2494.3,0 V 305.2 H 3739.9 2677.2 v 1047.6 c 0,576.9 6.5,1056.3 15.2,1062.8 6.5,8.7 485.8,15.2 1062.7,15.2 h 1047.6 z m 2511.5,-4.3 4.3,-1058.4 H 6255.8 5193.1 V 1368 2430.8 l 1058.4,-4.3 1056.3,-6.5 z m 2216.6,4.3 V 305.2 H 8609 7687.2 V 1368 2430.8 H 8609 9530.8 Z M 2308.4,-1139.3 V -2210.7 H 1386.6 464.9 v 1071.4 1071.4 h 921.8 l 921.8,2.2 v -1073.6 z m 2494.3,0 v -1071.4 l -1056.2,4.3 -1058.4,6.5 -6.5,1041.1 c -2.2,572.6 0,1051.9 4.3,1064.9 6.5,19.5 295,26 1062.7,26 h 1054.1 z m 2505,2.2 v -1062.8 l -1056.3,-6.5 -1058.4,-4.3 v 1071.4 1071.4 l 1058.5,-2.1 1056.3,-4.3 v -1062.8 z m 2223.1,-2.2 V -2210.7 H 8609 7687.2 v 1071.4 1073.6 l 921.8,-2.2 h 921.8 z M 2308.4,-3501.2 v -923.9 l -867.6,6.5 -865.4,6.5 -49.9,49.9 -49.9,49.9 -6.5,865.4 -6.5,867.5 h 924 921.8 z m 2494.3,0 V -4423 H 3739.9 2677.2 v 921.8 921.8 h 1062.7 1062.8 z m 2515.9,0 V -4423 H 6255.8 5193.1 v 921.8 921.8 h 1062.8 1062.7 z m 2212.2,86.8 c 0,-598.6 -6.5,-848 -26,-889.2 -52.1,-117.1 -73.7,-119.3 -982.5,-119.3 h -835 v 921.8 921.8 h 921.7 921.8 z"
       inkscape:connector-curvature="0" /></g></g>
</svg>