<?xml version="1.0" encoding="utf-8"?>
<!-- Svg Vector Icons : http://www.onlinewebfonts.com/icon -->
<!DOCTYPE svg PUBLIC "-//W3C//DTD SVG 1.1//EN" "http://www.w3.org/Graphics/SVG/1.1/DTD/svg11.dtd">
<svg version="1.1" xmlns="http://www.w3.org/2000/svg" xmlns:xlink="http://www.w3.org/1999/xlink" x="0px" y="0px" viewBox="0 0 1000 1000" enable-background="new 0 0 1000 1000" xml:space="preserve">
<metadata> Svg Vector Icons : http://www.onlinewebfonts.com/icon </metadata>
<g><path d="M402,497.6c0,4.6,0.2,9.2,0.6,13.7l129.5-129.5c-10.1-4.4-20.9-6.8-32.1-6.8C445.9,375.1,402,430,402,497.6z" style="fill:#000000;stroke:#000000;stroke-opacity:1" /><path d="M295.2,618.7C269.8,584,255,542.4,255,497.6c0-121.8,109.7-220.5,245-220.5c40.5,0,78.7,8.8,112.3,24.5L687,227c-57.6-28.8-120.8-47.9-187-47.9c-270.6,0-490,318.5-490,318.5s78.8,114.4,200.2,206.1L295.2,618.7z"/><path d="M597.9,501.6L481.6,617.9c6,1.4,12.1,2.2,18.4,2.2C553,620.1,596.3,567.3,597.9,501.6z" style="fill:#000000;stroke:#000000;stroke-opacity:1" /><path d="M800.1,299.4l-87.9,87.9c20.9,32.4,32.8,70.1,32.8,110.3c0,121.7-132.3,220.5-245,220.5c-35.5,0-69.2-6.8-99.6-19l-75.1,75.1c54.3,25.4,113.1,41.9,174.7,41.9c270.6,0,490-318.5,490-318.5S915.6,389.7,800.1,299.4z" style="fill:#000000;stroke:#000000;stroke-opacity:1" /><path d="M880,175.3c12.8-12.8,12.8-33.6,0-46.4c-12.8-12.8-33.6-12.8-46.4,0l0,0l0,0L137.8,824.7c-12.8,12.8-12.8,33.6,0,46.4c12.8,12.8,33.6,12.8,46.4,0l694.9-694.9C879.4,175.9,879.8,175.6,880,175.3z" style="fill:#000000;stroke:#000000;stroke-opacity:1" /></g>
</svg>
