<?xml version="1.0" encoding="utf-8"?>
<!-- Svg Vector Icons : http://www.onlinewebfonts.com/icon -->
<!DOCTYPE svg PUBLIC "-//W3C//DTD SVG 1.1//EN" "http://www.w3.org/Graphics/SVG/1.1/DTD/svg11.dtd">
<svg version="1.1" xmlns="http://www.w3.org/2000/svg" xmlns:xlink="http://www.w3.org/1999/xlink" x="0px" y="0px" viewBox="0 0 1000 1000" enable-background="new 0 0 1000 1000" xml:space="preserve">
<metadata> Svg Vector Icons : http://www.onlinewebfonts.com/icon </metadata>
<g><g transform="translate(0.000000,511.000000) scale(0.100000,-0.100000)">
<path
    d="M812.9,5051.4c-148.6-50.2-277.1-132.5-399.6-253c-140.6-136.6-224.9-269.1-275.1-435.8C100,4238.1,98,4183.9,104,3509.1l6-720.9l76.3-158.6c134.6-283.2,439.8-534.2,716.9-594.4c82.3-16.1,1148.7-20.1,4169-16.1l4058.6,6l170.7,84.4c220.9,110.4,407.7,301.2,516.1,526.1l72.3,152.6l6,720.9c6,678.8,4,727-34.1,855.5c-82.3,269.1-287.2,502-562.3,638.6l-150.6,74.3l-4116.8,4C1166.4,5085.5,907.3,5083.5,812.9,5051.4z M9219.2,4702c156.7-82.3,285.2-230.9,329.3-385.6c28.1-92.4,32.1-218.9,26.1-809.3l-6-698.8l-54.2-100.4c-64.3-120.5-194.8-249-317.3-313.3l-90.4-48.2H5010H913.3l-94.4,44.2c-126.5,58.2-269.1,192.8-333.4,317.3l-54.2,100.4l-6,698.8c-4,586.4,0,716.9,26.1,803.3c56.2,188.8,218.9,359.5,405.7,427.7c62.2,22.1,775.2,26.1,4157,28.1h4078.6L9219.2,4702z"
    style="fill:#000000;fill-opacity:1"/>
<path
    d="M1415.4,4320.4c-90.4-48.2-90.4-50.2-90.4-769.1v-686.8l46.2-42.2c64.3-60.2,154.6-58.2,216.9,8l48.2,52.2l6,638.6c6,702.9-2,763.1-106.4,803.3C1471.6,4348.5,1465.6,4348.5,1415.4,4320.4z"
    style="fill:#000000;fill-opacity:1"/>
<path
    d="M907.3,1631.4c-329.4-64.3-688.8-409.7-779.2-749.1C108,806.1,100,613.3,100,105.2c0-620.5,4-686.8,40.2-807.3C244.6-1041.5,588-1354.7,923.4-1419c146.6-28.1,8006.7-28.1,8155.3,0c339.4,64.3,676.8,375.5,783.2,725c38.2,124.5,40.2,178.7,34.1,855.5l-6,720.9l-78.3,160.7c-146.6,295.2-445.8,536.2-733,590.4C8946.1,1657.6,1033.8,1657.6,907.3,1631.4z M9201.2,1266c144.6-70.3,281.2-220.9,337.4-369.5c40.2-108.4,42.2-142.6,36.1-817.3c-6-672.8-8-708.9-50.2-799.3c-60.2-132.5-192.8-267.1-325.3-331.3l-112.5-56.2l-4026.4-6c-4476.3-6-4165-16.1-4363.8,128.5c-52.2,38.2-122.5,106.4-154.6,152.6C425.3-674,419.3-611.7,425.3,151.4c6,656.7,8,692.8,50.2,783.2c82.3,178.7,269.1,333.3,455.9,379.5c34.1,8,1883.7,12.1,4108.8,12.1l4046.5-4L9201.2,1266z"
    style="fill:#000000;fill-opacity:1"/>
<path
    d="M1377.2,848.2l-52.2-40.2V107.2v-700.9l52.2-40.2c70.3-56.2,134.5-52.2,202.8,6l56.2,48.2v686.8V794l-56.2,48.2C1511.8,900.5,1447.5,904.5,1377.2,848.2z"
    style="fill:#000000;fill-opacity:1"/>
<path
    d="M879.2-1822.7c-305.2-72.3-630.6-379.5-737-696.8C102-2634,100-2690.2,100-3334.8c0-801.3,8-845.4,178.7-1090.4c116.5-164.7,261.1-287.2,443.8-375.5l130.5-62.2H5000h4146.9l130.5,62.2c184.8,88.4,325.3,206.9,441.8,373.5c172.7,247,180.7,291.2,180.7,1078.4c0,381.6-10,712.9-22.1,763.1c-34.2,148.6-122.5,305.3-249,441.8c-142.6,152.6-279.2,245-447.8,301.2c-122.5,42.2-136.6,42.2-4175.1,40.2C2740.8-1804.6,919.3-1812.6,879.2-1822.7z M9207.2-2186.1c128.5-66.3,241-178.7,307.3-307.3l54.2-100.4v-743v-743l-48.2-100.4c-66.3-132.5-200.8-263.1-331.3-323.3l-106.4-48.2l-4104.7,4l-4104.8,6l-86.3,46.2c-118.5,64.3-245,194.8-305.2,315.3l-50.2,100.4v743c0,741,0,743,48.2,833.4c86.4,166.7,255,311.3,423.7,363.5c28.1,8,1883.7,14.1,4126.8,12.1l4076.6-4L9207.2-2186.1z"
    style="fill:#000000;fill-opacity:1"/>
<path
    d="M1369.2-2609.9c-44.2-46.2-44.2-56.2-44.2-725c0-403.6,8-692.8,20.1-714.9c56.2-102.4,237-76.3,279.1,40.2c30.1,86.3,30.1,1259.2,2,1337.5C1582-2557.7,1447.5-2525.5,1369.2-2609.9z"
    style="fill:#000000;fill-opacity:1"/>
</g>
</g>
</svg>
