<?xml version="1.0" encoding="UTF-8" standalone="no"?>
<!-- Generator: Adobe Illustrator 19.0.0, SVG Export Plug-In . SVG Version: 6.00 Build 0)  -->

<svg
   xmlns:dc="http://purl.org/dc/elements/1.1/"
   xmlns:cc="http://creativecommons.org/ns#"
   xmlns:rdf="http://www.w3.org/1999/02/22-rdf-syntax-ns#"
   xmlns:svg="http://www.w3.org/2000/svg"
   xmlns="http://www.w3.org/2000/svg"
   xmlns:sodipodi="http://sodipodi.sourceforge.net/DTD/sodipodi-0.dtd"
   xmlns:inkscape="http://www.inkscape.org/namespaces/inkscape"
   version="1.1"
   id="Capa_1"
   x="0px"
   y="0px"
   viewBox="0 0 489.9 489.9"
   style="enable-background:new 0 0 489.9 489.9;"
   xml:space="preserve"
   sodipodi:docname="move-svgrepo-com.svg"
   inkscape:version="0.92.5 (2060ec1f9f, 2020-04-08)"><metadata
   id="metadata937"><rdf:RDF><cc:Work
       rdf:about=""><dc:format>image/svg+xml</dc:format><dc:type
         rdf:resource="http://purl.org/dc/dcmitype/StillImage" /><dc:title></dc:title></cc:Work></rdf:RDF></metadata><defs
   id="defs935" /><sodipodi:namedview
   pagecolor="#ffffff"
   bordercolor="#666666"
   borderopacity="1"
   objecttolerance="10"
   gridtolerance="10"
   guidetolerance="10"
   inkscape:pageopacity="0"
   inkscape:pageshadow="2"
   inkscape:window-width="2488"
   inkscape:window-height="1376"
   id="namedview933"
   showgrid="false"
   inkscape:pagecheckerboard="true"
   inkscape:zoom="2.4453971"
   inkscape:cx="244.95"
   inkscape:cy="244.95"
   inkscape:window-x="72"
   inkscape:window-y="27"
   inkscape:window-maximized="1"
   inkscape:current-layer="Capa_1" />
<g
   id="g900"
   style="fill:#000000;fill-opacity:1;stroke:#000000;stroke-opacity:1">
	<g
   id="g898"
   style="fill:#000000;fill-opacity:1;stroke:#000000;stroke-opacity:1">
		<path
   d="M406.2,173.55c-4.8,4.8-4.8,12.5,0,17.3l41.8,41.8H333.3v-63.9c0-6.8-5.5-12.3-12.3-12.3h-63.9V41.85l41.8,41.8    c2.4,2.4,5.5,3.6,8.7,3.6s6.3-1.2,8.7-3.6c4.8-4.8,4.8-12.5,0-17.3l-62.7-62.7c-2.3-2.3-5.4-3.6-8.7-3.6s-6.4,1.3-8.7,3.6    l-62.7,62.7c-4.8,4.8-4.8,12.5,0,17.3s12.5,4.8,17.3,0l41.8-41.8v114.7h-63.9c-6.8,0-12.3,5.5-12.3,12.3v63.9H41.8l41.8-41.8    c4.8-4.8,4.8-12.5,0-17.3s-12.5-4.8-17.3,0l-62.7,62.7c-4.8,4.8-4.8,12.5,0,17.3l62.7,62.7c2.4,2.4,5.5,3.6,8.7,3.6    s6.3-1.2,8.7-3.6c4.8-4.8,4.8-12.5,0-17.3l-41.8-41.8h114.7v63.9c0,6.8,5.5,12.3,12.3,12.3h63.9v114.7l-41.9-41.9    c-4.8-4.8-12.5-4.8-17.3,0s-4.8,12.5,0,17.3l62.7,62.7c2.3,2.3,5.4,3.6,8.7,3.6s6.4-1.3,8.7-3.6l62.7-62.7    c4.8-4.8,4.8-12.5,0-17.3s-12.5-4.8-17.3,0l-41.8,41.8v-114.7h63.9c6.8,0,12.3-5.5,12.3-12.3v-63.9h114.7l-42,41.8    c-4.8,4.8-4.8,12.5,0,17.3c2.4,2.4,5.5,3.6,8.7,3.6s6.3-1.2,8.7-3.6l62.7-62.7c2.3-2.3,3.6-5.4,3.6-8.7s-1.3-6.4-3.6-8.7    l-62.7-62.7C418.7,168.75,411,168.75,406.2,173.55z M308.8,308.85H181v-127.8h127.8L308.8,308.85L308.8,308.85z"
   id="path896"
   style="fill:#000000;fill-opacity:1;stroke:#000000;stroke-opacity:1" />
	</g>
</g>
<g
   id="g902">
</g>
<g
   id="g904">
</g>
<g
   id="g906">
</g>
<g
   id="g908">
</g>
<g
   id="g910">
</g>
<g
   id="g912">
</g>
<g
   id="g914">
</g>
<g
   id="g916">
</g>
<g
   id="g918">
</g>
<g
   id="g920">
</g>
<g
   id="g922">
</g>
<g
   id="g924">
</g>
<g
   id="g926">
</g>
<g
   id="g928">
</g>
<g
   id="g930">
</g>
</svg>