<?xml version="1.0" encoding="UTF-8" standalone="no"?>
<!-- Svg Vector Icons : http://www.onlinewebfonts.com/icon -->

<svg
   version="1.1"
   x="0px"
   y="0px"
   viewBox="0 0 1000 1000"
   enable-background="new 0 0 1000 1000"
   xml:space="preserve"
   id="svg10"
   xmlns="http://www.w3.org/2000/svg"
   xmlns:svg="http://www.w3.org/2000/svg"><defs
   id="defs14" />
<metadata
   id="metadata2"> Svg Vector Icons : http://www.onlinewebfonts.com/icon </metadata>
<g
   id="g8"
   style="fill:#000000;stroke:none;stroke-opacity:1;stroke-width:1;stroke-dasharray:none;fill-opacity:1"><g
     id="g6"
     style="fill:#000000;stroke:none;stroke-opacity:1;stroke-width:1;stroke-dasharray:none;fill-opacity:1"><path
       d="M143.6,10h311.8c12.3,0,22.8,4.4,31.5,13.1c8.7,8.7,13.1,19.2,13.1,31.5c0,12.3-4.4,22.8-13.1,31.5c-8.7,8.7-19.2,13.1-31.5,13.1H143.6c-12.3,0-22.8,4.3-31.5,13.1c-8.7,8.7-13.1,19.2-13.1,31.5v712.7c0,12.3,4.4,22.8,13.1,31.5c8.7,8.7,19.2,13.1,31.5,13.1h712.7c12.3,0,22.8-4.4,31.5-13.1c8.7-8.7,13.1-19.2,13.1-31.5V544.5c0-12.3,4.4-22.8,13.1-31.5c8.7-8.7,19.2-13.1,31.5-13.1c12.3,0,22.8,4.4,31.5,13.1c8.7,8.7,13.1,19.2,13.1,31.5v311.8c0,36.9-13.1,68.4-39.2,94.5C924.7,977,893.3,990,856.4,990H143.6c-36.9,0-68.4-13.1-94.5-39.2C23.1,924.7,10,893.3,10,856.4V143.6c0-36.9,13.1-68.4,39.2-94.5C75.3,23.1,106.7,10,143.6,10L143.6,10z M678.2,10h267.3c12.3,0,22.8,4.4,31.5,13.1c8.7,8.7,13,19.2,13,31.5v267.3c0,12.3-4.3,22.8-13,31.5c-8.7,8.7-19.2,13.1-31.5,13.1s-22.8-4.4-31.5-13.1c-8.7-8.7-13-19.2-13-31.5V162.1L531.3,531.7c-8.6,8.6-19,12.9-31.3,12.9c-12.8,0-23.4-4.2-31.8-12.7c-8.5-8.5-12.7-19.1-12.7-31.8c0-12.3,4.3-22.7,12.9-31.3L837.9,99.1H678.2c-12.3,0-22.8-4.3-31.5-13.1c-8.7-8.7-13.1-19.2-13.1-31.5c0-12.3,4.4-22.8,13.1-31.5C655.4,14.3,665.9,10,678.2,10L678.2,10z"
       id="path4"
       style="fill:#000000;stroke:none;stroke-opacity:1;stroke-width:1;stroke-dasharray:none;fill-opacity:1" /></g></g>
</svg>
