<?xml version="1.0" encoding="UTF-8" standalone="no"?>
<svg
   xmlns:dc="http://purl.org/dc/elements/1.1/"
   xmlns:cc="http://creativecommons.org/ns#"
   xmlns:rdf="http://www.w3.org/1999/02/22-rdf-syntax-ns#"
   xmlns:svg="http://www.w3.org/2000/svg"
   xmlns="http://www.w3.org/2000/svg"
   xmlns:sodipodi="http://sodipodi.sourceforge.net/DTD/sodipodi-0.dtd"
   xmlns:inkscape="http://www.inkscape.org/namespaces/inkscape"
   height="512pt"
   viewBox="0 0 512 512"
   width="512pt"
   id="svg2"
   version="1.1"
   inkscape:version="0.92.4 (33fec40, 2019-01-16)"
   sodipodi:docname="point_chart.svg">
  <metadata
     id="metadata12">
    <rdf:RDF>
      <cc:Work
         rdf:about="">
        <dc:format>image/svg+xml</dc:format>
        <dc:type
           rdf:resource="http://purl.org/dc/dcmitype/StillImage" />
        <dc:title></dc:title>
      </cc:Work>
    </rdf:RDF>
  </metadata>
  <defs
     id="defs10" />
  <sodipodi:namedview
     pagecolor="#ffffff"
     bordercolor="#666666"
     borderopacity="1"
     objecttolerance="10"
     gridtolerance="10"
     guidetolerance="10"
     inkscape:pageopacity="0"
     inkscape:pageshadow="2"
     inkscape:window-width="1855"
     inkscape:window-height="1056"
     id="namedview8"
     showgrid="false"
     inkscape:zoom="0.36875"
     inkscape:cx="320"
     inkscape:cy="320"
     inkscape:window-x="1985"
     inkscape:window-y="24"
     inkscape:window-maximized="1"
     inkscape:current-layer="svg2"
     inkscape:pagecheckerboard="true" />
  <path
     d="m 62.115254,369.73559 c 13.035046,0 24.833069,-5.06615 33.55115,-13.20132 l 47.827426,23.16244 c -0.23983,1.88706 -0.59326,3.74153 -0.59326,5.68973 0,25.88911 21.74471,46.95254 48.47118,46.95254 26.72648,0 48.47119,-21.06343 48.47119,-46.95254 0,-7.22629 -1.83451,-13.99202 -4.85974,-20.11378 l 64.88069,-62.84794 c 6.31977,2.93046 13.30434,4.70748 20.76436,4.70748 26.72647,0 48.47119,-21.06343 48.47119,-46.95254 0,-4.87458 -0.98878,-9.48425 -2.41936,-13.90643 l 56.373,-40.9449 c 7.69144,4.97648 16.91022,7.89879 26.83167,7.89879 26.72647,0 48.47118,-21.06344 48.47118,-46.95255 0,-25.88911 -21.74471,-46.95254 -48.47118,-46.95254 -26.72648,0 -48.47119,21.06343 -48.47119,46.95254 0,4.8746 0.98878,9.48426 2.41935,13.90644 l -56.373,40.9449 c -7.69143,-4.97649 -16.91021,-7.89879 -26.83166,-7.89879 -26.72647,0 -48.47119,21.06343 -48.47119,46.95254 0,7.22629 1.8345,13.99202 4.85975,20.11379 l -64.88071,62.84793 c -6.31977,-2.93046 -13.30433,-4.70748 -20.76435,-4.70748 -13.03504,0 -24.83307,5.06614 -33.55115,13.20133 l -47.82742,-23.16244 c 0.23982,-1.88708 0.59326,-3.74154 0.59326,-5.68974 0,-25.88911 -21.744712,-46.95254 -48.471186,-46.95254 -26.726473,0 -48.471186,21.06343 -48.471186,46.95254 0,25.88911 21.744713,46.95254 48.471186,46.95254 z m 0,0"
     id="path4"
     inkscape:connector-curvature="0" />
</svg>
