<?xml version="1.0" encoding="UTF-8" standalone="no"?>
<!-- Generator: Adobe Illustrator 18.1.1, SVG Export Plug-In . SVG Version: 6.00 Build 0)  -->

<svg
   xmlns:dc="http://purl.org/dc/elements/1.1/"
   xmlns:cc="http://creativecommons.org/ns#"
   xmlns:rdf="http://www.w3.org/1999/02/22-rdf-syntax-ns#"
   xmlns:svg="http://www.w3.org/2000/svg"
   xmlns="http://www.w3.org/2000/svg"
   xmlns:sodipodi="http://sodipodi.sourceforge.net/DTD/sodipodi-0.dtd"
   xmlns:inkscape="http://www.inkscape.org/namespaces/inkscape"
   version="1.1"
   id="Capa_1"
   x="0px"
   y="0px"
   viewBox="0 0 25.975 25.975"
   style="enable-background:new 0 0 25.975 25.975;"
   xml:space="preserve"
   sodipodi:docname="remove_list.svg"
   inkscape:version="0.92.4 (33fec40, 2019-01-16)"><metadata
   id="metadata1694"><rdf:RDF><cc:Work
       rdf:about=""><dc:format>image/svg+xml</dc:format><dc:type
         rdf:resource="http://purl.org/dc/dcmitype/StillImage" /><dc:title></dc:title></cc:Work></rdf:RDF></metadata><defs
   id="defs1692" /><sodipodi:namedview
   pagecolor="#ffffff"
   bordercolor="#666666"
   borderopacity="1"
   objecttolerance="10"
   gridtolerance="10"
   guidetolerance="10"
   inkscape:pageopacity="0"
   inkscape:pageshadow="2"
   inkscape:window-width="1855"
   inkscape:window-height="1056"
   id="namedview1690"
   showgrid="false"
   inkscape:pagecheckerboard="true"
   inkscape:zoom="17.266602"
   inkscape:cx="16.10254"
   inkscape:cy="8.3334897"
   inkscape:window-x="1985"
   inkscape:window-y="24"
   inkscape:window-maximized="1"
   inkscape:current-layer="Capa_1" />
<g
   id="g1657">
	<g
   id="g1651">
		<path
   style="fill:#030104;"
   d="M9,14h5.764c1.165-1.019,2.625-1.703,4.236-1.905V12H9V14z"
   id="path1637" />
		<rect
   x="9"
   y="8"
   style="fill:#030104;"
   width="10"
   height="2"
   id="rect1639" />
		<path
   style="fill:#030104;"
   d="M12.289,22H3c-0.551,0-1-0.449-1-1V4h20v8.289c0.71,0.184,1.381,0.462,2,0.823V3    c0-1.657-1.344-3-3-3H3C1.344,0,0,1.343,0,3v18c0,1.656,1.344,3,3,3h10.112C12.751,23.381,12.474,22.71,12.289,22z"
   id="path1641" />
		<path
   style="fill:#030104;"
   d="M9,16v2h3.289c0.185-0.71,0.462-1.381,0.823-2H9z"
   id="path1643" />
		<rect
   x="5"
   y="12"
   style="fill:#030104;"
   width="2"
   height="2"
   id="rect1645" />
		<rect
   x="5"
   y="8"
   style="fill:#030104;"
   width="2"
   height="2"
   id="rect1647" />
		<rect
   x="5"
   y="16"
   style="fill:#030104;"
   width="2"
   height="2"
   id="rect1649" />
	</g>
	<g
   id="g1655">
		<path
   style="fill:#030104;"
   d="M20,14.025c-3.3,0-5.975,2.675-5.975,5.975c0,3.301,2.675,5.975,5.975,5.975    s5.975-2.674,5.975-5.975C25.975,16.7,23.3,14.025,20,14.025z M23.535,22.121l-1.414,1.414L20,21.414l-2.121,2.121l-1.414-1.414    L18.586,20l-2.121-2.121l1.414-1.414L20,18.586l2.121-2.121l1.414,1.414L21.414,20L23.535,22.121z"
   id="path1653" />
	</g>
</g>
<g
   id="g1659">
</g>
<g
   id="g1661">
</g>
<g
   id="g1663">
</g>
<g
   id="g1665">
</g>
<g
   id="g1667">
</g>
<g
   id="g1669">
</g>
<g
   id="g1671">
</g>
<g
   id="g1673">
</g>
<g
   id="g1675">
</g>
<g
   id="g1677">
</g>
<g
   id="g1679">
</g>
<g
   id="g1681">
</g>
<g
   id="g1683">
</g>
<g
   id="g1685">
</g>
<g
   id="g1687">
</g>
</svg>