<?xml version="1.0" encoding="UTF-8" standalone="no"?>
<svg
   xmlns:dc="http://purl.org/dc/elements/1.1/"
   xmlns:cc="http://creativecommons.org/ns#"
   xmlns:rdf="http://www.w3.org/1999/02/22-rdf-syntax-ns#"
   xmlns:svg="http://www.w3.org/2000/svg"
   xmlns="http://www.w3.org/2000/svg"
   xmlns:sodipodi="http://sodipodi.sourceforge.net/DTD/sodipodi-0.dtd"
   xmlns:inkscape="http://www.inkscape.org/namespaces/inkscape"
   inkscape:export-ydpi="256.65308"
   inkscape:export-xdpi="256.65308"
   inkscape:export-filename="/home/davide.faconti/ws_plotjuggler/src/PlotJuggler/plotter_gui/resources/svg/light/save.png"
   inkscape:version="1.0 (6e3e5246a0, 2020-05-07)"
   sodipodi:docname="save.svg"
   xml:space="preserve"
   style="enable-background:new 0 0 49 49;"
   viewBox="0 0 49 49"
   y="0px"
   x="0px"
   id="Capa_1"
   version="1.1"><metadata
   id="metadata1838"><rdf:RDF><cc:Work
       rdf:about=""><dc:format>image/svg+xml</dc:format><dc:type
         rdf:resource="http://purl.org/dc/dcmitype/StillImage" /><dc:title></dc:title></cc:Work></rdf:RDF></metadata><defs
   id="defs1836" /><sodipodi:namedview
   inkscape:document-rotation="0"
   inkscape:current-layer="Capa_1"
   inkscape:window-maximized="1"
   inkscape:window-y="27"
   inkscape:window-x="67"
   inkscape:cy="14.600557"
   inkscape:cx="15.176547"
   inkscape:zoom="9.1530612"
   inkscape:pagecheckerboard="true"
   showgrid="false"
   id="namedview1834"
   inkscape:window-height="1385"
   inkscape:window-width="3373"
   inkscape:pageshadow="2"
   inkscape:pageopacity="0"
   guidetolerance="10"
   gridtolerance="10"
   objecttolerance="10"
   borderopacity="1"
   bordercolor="#666666"
   pagecolor="#ffffff" />
<g
   style="fill:#000000;fill-opacity:1;stroke:none"
   id="g1801">
	<path
   style="fill:#000000;fill-opacity:1;stroke:none"
   id="path1791"
   d="M39.914,0H37.5h-28h-9v49h7h33h8V8.586L39.914,0z M35.5,2v14h-24V2H35.5z M9.5,47V28h29v19H9.5z M46.5,47h-6V26h-33v21h-5   V2h7v16h28V2h1.586L46.5,9.414V47z" />
	<path
   style="fill:#000000;fill-opacity:1;stroke:none"
   id="path1793"
   d="M13.5,33h7c0.553,0,1-0.447,1-1s-0.447-1-1-1h-7c-0.553,0-1,0.447-1,1S12.947,33,13.5,33z" />
	<path
   style="fill:#000000;fill-opacity:1;stroke:none"
   id="path1795"
   d="M23.5,35h-10c-0.553,0-1,0.447-1,1s0.447,1,1,1h10c0.553,0,1-0.447,1-1S24.053,35,23.5,35z" />
	<path
   style="fill:#000000;fill-opacity:1;stroke:none"
   id="path1797"
   d="M25.79,35.29c-0.181,0.189-0.29,0.45-0.29,0.71s0.109,0.52,0.29,0.71C25.979,36.89,26.229,37,26.5,37   c0.26,0,0.52-0.11,0.71-0.29c0.18-0.19,0.29-0.45,0.29-0.71s-0.11-0.521-0.29-0.71C26.84,34.92,26.16,34.92,25.79,35.29z" />
	<path
   style="fill:#000000;fill-opacity:1;stroke:none"
   id="path1799"
   d="M33.5,4h-6v10h6V4z M31.5,12h-2V6h2V12z" />
</g>
<g
   id="g1803">
</g>
<g
   id="g1805">
</g>
<g
   id="g1807">
</g>
<g
   id="g1809">
</g>
<g
   id="g1811">
</g>
<g
   id="g1813">
</g>
<g
   id="g1815">
</g>
<g
   id="g1817">
</g>
<g
   id="g1819">
</g>
<g
   id="g1821">
</g>
<g
   id="g1823">
</g>
<g
   id="g1825">
</g>
<g
   id="g1827">
</g>
<g
   id="g1829">
</g>
<g
   id="g1831">
</g>
</svg>
