<?xml version="1.0" encoding="UTF-8" standalone="no"?>
<svg
   xmlns:dc="http://purl.org/dc/elements/1.1/"
   xmlns:cc="http://creativecommons.org/ns#"
   xmlns:rdf="http://www.w3.org/1999/02/22-rdf-syntax-ns#"
   xmlns:svg="http://www.w3.org/2000/svg"
   xmlns="http://www.w3.org/2000/svg"
   xmlns:sodipodi="http://sodipodi.sourceforge.net/DTD/sodipodi-0.dtd"
   xmlns:inkscape="http://www.inkscape.org/namespaces/inkscape"
   width="512"
   height="512"
   viewBox="0 0 512 512"
   version="1.1"
   id="svg1420"
   sodipodi:docname="settings_cog.svg"
   inkscape:version="0.92.3 (2405546, 2018-03-11)">
  <metadata
     id="metadata1426">
    <rdf:RDF>
      <cc:Work
         rdf:about="">
        <dc:format>image/svg+xml</dc:format>
        <dc:type
           rdf:resource="http://purl.org/dc/dcmitype/StillImage" />
      </cc:Work>
    </rdf:RDF>
  </metadata>
  <defs
     id="defs1424" />
  <sodipodi:namedview
     pagecolor="#ffffff"
     bordercolor="#666666"
     borderopacity="1"
     objecttolerance="10"
     gridtolerance="10"
     guidetolerance="10"
     inkscape:pageopacity="0"
     inkscape:pageshadow="2"
     inkscape:window-width="1853"
     inkscape:window-height="1025"
     id="namedview1422"
     showgrid="false"
     inkscape:zoom="1.6484375"
     inkscape:cx="256"
     inkscape:cy="256"
     inkscape:window-x="67"
     inkscape:window-y="27"
     inkscape:window-maximized="1"
     inkscape:current-layer="svg1420" />
  <title
     id="title1416">ionicons-v5-q</title>
  <path
     d="M262.29,192.31a64,64,0,1,0,57.4,57.4A64.13,64.13,0,0,0,262.29,192.31ZM416.39,256a154.34,154.34,0,0,1-1.53,20.79l45.21,35.46A10.81,10.81,0,0,1,462.52,326l-42.77,74a10.81,10.81,0,0,1-13.14,4.59l-44.9-18.08a16.11,16.11,0,0,0-15.17,1.75A164.48,164.48,0,0,1,325,400.8a15.94,15.94,0,0,0-8.82,12.14l-6.73,47.89A11.08,11.08,0,0,1,298.77,470H213.23a11.11,11.11,0,0,1-10.69-8.87l-6.72-47.82a16.07,16.07,0,0,0-9-12.22,155.3,155.3,0,0,1-21.46-12.57,16,16,0,0,0-15.11-1.71l-44.89,18.07a10.81,10.81,0,0,1-13.14-4.58l-42.77-74a10.8,10.8,0,0,1,2.45-13.75l38.21-30a16.05,16.05,0,0,0,6-14.08c-.36-4.17-.58-8.33-.58-12.5s.21-8.27.58-12.35a16,16,0,0,0-6.07-13.94l-38.19-30A10.81,10.81,0,0,1,49.48,186l42.77-74a10.81,10.81,0,0,1,13.14-4.59l44.9,18.08a16.11,16.11,0,0,0,15.17-1.75A164.48,164.48,0,0,1,187,111.2a15.94,15.94,0,0,0,8.82-12.14l6.73-47.89A11.08,11.08,0,0,1,213.23,42h85.54a11.11,11.11,0,0,1,10.69,8.87l6.72,47.82a16.07,16.07,0,0,0,9,12.22,155.3,155.3,0,0,1,21.46,12.57,16,16,0,0,0,15.11,1.71l44.89-18.07a10.81,10.81,0,0,1,13.14,4.58l42.77,74a10.8,10.8,0,0,1-2.45,13.75l-38.21,30a16.05,16.05,0,0,0-6.05,14.08C416.17,247.67,416.39,251.83,416.39,256Z"
     style="fill:none;stroke:#000000;stroke-linecap:round;stroke-linejoin:round;stroke-width:34.01574803;stroke-miterlimit:4;stroke-dasharray:none;fill-opacity:1;stroke-opacity:0.85875708"
     id="path1418" />
</svg>
