<?xml version="1.0" encoding="utf-8"?>
<!-- Svg Vector Icons : http://www.onlinewebfonts.com/icon -->
<!DOCTYPE svg PUBLIC "-//W3C//DTD SVG 1.1//EN" "http://www.w3.org/Graphics/SVG/1.1/DTD/svg11.dtd">
<svg version="1.1" xmlns="http://www.w3.org/2000/svg" xmlns:xlink="http://www.w3.org/1999/xlink" x="0px" y="0px" viewBox="0 0 1000 1000" enable-background="new 0 0 1000 1000" xml:space="preserve">
<metadata> Svg Vector Icons : http://www.onlinewebfonts.com/icon </metadata>
<g><path d="M500,206C206,206,10,500,10,500s196,294,490,294s490-294,490-294S794,206,500,206z M500,693.7c-108,0-195.2-87.3-195.2-195.2C304.8,390.5,392,304,500,304s195.2,87.3,195.2,195.2C695.2,607.2,608,693.7,500,693.7z M402,499.2c0-53.6,43.6-97.2,97.2-97.2s97.2,43.6,97.2,97.2s-42.9,98-97.2,98C444.9,597.2,402,553.6,402,499.2L402,499.2z" style="fill:#000000;stroke:#000000;stroke-opacity:1" /></g>
</svg>
