<?xml version="1.0" encoding="UTF-8" standalone="no"?>
<!-- Created with Inkscape (http://www.inkscape.org/) -->

<svg
   xmlns:dc="http://purl.org/dc/elements/1.1/"
   xmlns:cc="http://creativecommons.org/ns#"
   xmlns:rdf="http://www.w3.org/1999/02/22-rdf-syntax-ns#"
   xmlns:svg="http://www.w3.org/2000/svg"
   xmlns="http://www.w3.org/2000/svg"
   xmlns:sodipodi="http://sodipodi.sourceforge.net/DTD/sodipodi-0.dtd"
   xmlns:inkscape="http://www.inkscape.org/namespaces/inkscape"
   width="100mm"
   height="100mm"
   viewBox="0 0 100 100"
   version="1.1"
   id="svg8"
   inkscape:version="0.92.3 (2405546, 2018-03-11)"
   sodipodi:docname="t0.svg">
  <defs
     id="defs2" />
  <sodipodi:namedview
     id="base"
     pagecolor="#ffffff"
     bordercolor="#666666"
     borderopacity="1.0"
     inkscape:pageopacity="0.0"
     inkscape:pageshadow="2"
     inkscape:zoom="1.4"
     inkscape:cx="112.16053"
     inkscape:cy="176.41564"
     inkscape:document-units="mm"
     inkscape:current-layer="layer1"
     showgrid="false"
     inkscape:pagecheckerboard="true"
     inkscape:window-width="1853"
     inkscape:window-height="1025"
     inkscape:window-x="67"
     inkscape:window-y="27"
     inkscape:window-maximized="1" />
  <metadata
     id="metadata5">
    <rdf:RDF>
      <cc:Work
         rdf:about="">
        <dc:format>image/svg+xml</dc:format>
        <dc:type
           rdf:resource="http://purl.org/dc/dcmitype/StillImage" />
        <dc:title></dc:title>
      </cc:Work>
    </rdf:RDF>
  </metadata>
  <g
     inkscape:label="Layer 1"
     inkscape:groupmode="layer"
     id="layer1"
     transform="translate(0,-197)">
    <g
       aria-label="t0"
       transform="matrix(1.2390933,0,0,0.88498662,-49.712829,119.1651)"
       style="font-style:normal;font-variant:normal;font-weight:normal;font-stretch:normal;font-size:96px;line-height:1.25;font-family:Garuda;-inkscape-font-specification:Garuda;letter-spacing:0px;word-spacing:0px;fill:#000000;fill-opacity:1;stroke:none"
       id="flowRoot815">
      <path
         d="m 65.701156,157.19597 q 0,4.128 0.96,5.952 1.056,1.824 3.648,1.824 0.576,0 1.824,-0.096 1.344,-0.192 1.92,-0.192 l 1.248,6.624 q -2.976,0.576 -6.432,0.576 -3.936,0 -6.432,-0.864 -2.4,-0.96 -3.552,-3.168 -1.056,-2.208 -1.44,-4.512 -0.288,-2.4 -0.288,-6.624 v -28.704 h -6.144 v -6.432 h 6.144 v -12.384 l 8.544,-5.088 v 17.472 h 8.352 v 6.432 h -8.352 z"
         style="font-style:normal;font-variant:normal;font-weight:normal;font-stretch:normal;font-size:96px;font-family:Garuda;-inkscape-font-specification:Garuda"
         id="path848" />
      <path
         d="m 78.468556,168.16877 q 0,-23.2128 14.664,-23.2128 14.539204,0 14.539204,23.2128 0,23.088 -14.539204,23.088 -14.664,0 -14.664,-23.088 z m 5.5536,0 q 0,18.5952 9.1104,18.5952 8.985604,0 8.985604,-18.5952 0,-18.72 -9.110404,-18.72 -8.9856,0 -8.9856,18.72 z"
         style="font-style:normal;font-variant:normal;font-weight:normal;font-stretch:normal;font-size:64.99999762%;font-family:Garuda;-inkscape-font-specification:Garuda;baseline-shift:sub"
         id="path850" />
    </g>
  </g>
</svg>
