<?xml version="1.0" encoding="UTF-8" standalone="no"?>
<!-- Svg Vector Icons : http://www.onlinewebfonts.com/icon -->

<svg
   version="1.1"
   x="0px"
   y="0px"
   viewBox="0 0 1000 1000"
   enable-background="new 0 0 1000 1000"
   xml:space="preserve"
   id="svg8"
   xmlns="http://www.w3.org/2000/svg"
   xmlns:svg="http://www.w3.org/2000/svg"><defs
   id="defs12" />
<metadata
   id="metadata2"> Svg Vector Icons : http://www.onlinewebfonts.com/icon </metadata>
<g
   id="g6"><g
     id="g466"
     transform="translate(-34.46346,-13.773128)"><path
       d="m 507.58867,921.4437 c -15.4,-0.8 -30.4,-2.1 -44.6,-3.9 -12.3,-1.8 -23.4,7.1 -24.9,19.4 -1.5,12.2 7.1,23.4 19.4,24.9 15.2,1.9 31.3,3.3 47.7,4.2 h 1.2 c 11.8,0 21.6,-9.2 22.2,-21.1 0.8,-12.4 -8.7,-22.9 -21,-23.5 z m 182.5,-445.6 c 3.6,2.1 7.5,3.1 11.3,3.1 7.6,0 15.1,-3.9 19.2,-10.9 6.6,-11.3 15,-22.9 24.9,-34.7 7.9,-9.4 6.7,-23.5 -2.7,-31.4 -9.4,-7.9 -23.5,-6.7 -31.4,2.8 -11.4,13.6 -21.2,27.3 -29.1,40.6 -6.3,10.6 -2.8,24.2 7.8,30.5 z m -312.5,422.5 c -14.2,-5.1 -27,-11 -38.3,-17.6 -10.6,-6.3 -24.3,-2.7 -30.5,7.9 -6.2,10.6 -2.7,24.3 7.9,30.5 13.6,8 29,15.1 45.8,21.1 2.5,0.9 5,1.3 7.5,1.3 9.1,0 17.7,-5.6 21,-14.8 4.2,-11.4 -1.8,-24.2 -13.4,-28.4 z m -93.5,-87.5 c -0.2,-12.1 -10.1,-22 -22.3,-22 -12.3,0 -22.3,10 -22.3,22.3 0,2.1 0.3,13.5 6.2,29.3 3.3,9 11.9,14.6 20.9,14.6 2.6,0 5.2,-0.5 7.7,-1.4 11.5,-4.3 17.4,-17.1 13.2,-28.6 -3,-8.1 -3.3,-13.7 -3.4,-14.2 z m 534.8,-502.5 c -12.4,8.9 -25.2,18.6 -38,29 -9.5,7.8 -11,21.8 -3.2,31.4 4.4,5.4 10.8,8.2 17.3,8.2 4.9,0 9.9,-1.6 14.1,-5 12,-9.8 24.1,-18.9 35.8,-27.3 10,-7.2 12.3,-21.1 5.1,-31.1 -7.1,-10.1 -21,-12.4 -31.1,-5.2 z m 3.2,443.7 c -12.1,2.5 -19.8,14.3 -17.3,26.4 1.5,7.2 2.3,14.3 2.3,21 0,5.5 -0.5,11 -1.5,16.2 -2.4,12.1 5.5,23.8 17.7,26.1 1.4,0.3 2.8,0.4 4.2,0.4 10.5,0 19.8,-7.4 21.9,-18 1.6,-8.1 2.4,-16.3 2.4,-24.7 0,-9.8 -1.1,-19.9 -3.2,-30.1 -2.6,-12 -14.5,-19.7 -26.5,-17.3 z m 128.2,-497.2 c -5.7,-11 -19.1,-15.3 -30,-9.6 0,0 -7.6,3.9 -20.3,11.1 -10.7,6.1 -14.4,19.7 -8.3,30.4 4.1,7.2 11.6,11.2 19.4,11.2 3.7,0 7.5,-0.9 11,-2.9 11.4,-6.5 18.4,-10.1 18.6,-10.2 10.9,-5.6 15.3,-19 9.6,-30 z m -146.9,423.2 c -9.4,-12.4 -20.3,-24.8 -32.3,-37 -8.6,-8.8 -22.7,-8.9 -31.5,-0.2 -8.8,8.6 -8.9,22.8 -0.2,31.5 10.7,10.9 20.4,21.9 28.7,32.8 4.4,5.7 11,8.8 17.7,8.8 4.7,0 9.5,-1.5 13.5,-4.6 9.7,-7.6 11.6,-21.6 4.1,-31.3 z m -161.3,238.6 c -14.2,2 -29.1,3.5 -44.4,4.5 -12.3,0.8 -21.6,11.4 -20.8,23.7 0.8,11.8 10.6,20.9 22.2,20.9 h 1.5 c 16.4,-1.1 32.5,-2.7 47.8,-4.9 12.2,-1.7 20.7,-13 18.9,-25.2 -1.7,-12.3 -13,-20.8 -25.2,-19 z m 120.7,-41.2 c -10.5,7.3 -22.8,13.8 -36.6,19.5 -11.4,4.7 -16.8,17.7 -12.1,29.1 3.5,8.6 11.9,13.8 20.6,13.8 2.8,0 5.7,-0.5 8.5,-1.7 16.7,-6.9 31.9,-15 45,-24.1 10.1,-7.1 12.6,-20.9 5.6,-31 -6.9,-10.1 -20.9,-12.6 -31,-5.6 z m -50.4,-297.8 c -6.4,-11.4 -10.3,-23.2 -11.6,-35.2 -1.3,-12.2 -12,-21.1 -24.5,-19.8 -12.3,1.3 -21.1,12.3 -19.8,24.5 1.9,18 7.6,35.6 17,52.3 4.1,7.3 11.6,11.4 19.5,11.4 3.7,0 7.4,-0.9 10.9,-2.9 10.7,-6 14.5,-19.5 8.5,-30.3 z"
       id="path4" style="fill:#000000;stroke:#000000;stroke-opacity:1" /><polygon
       points="469.1,914.4 475.2,914.4 475.2,940.3 469.1,940.3 469.1,990 530.9,990 530.9,940.3 524.8,940.3 524.8,914.4 530.9,914.4 530.9,871.1 574.5,871.1 574.5,566.7 620.1,566.7 620.1,467.4 582.4,467.4 582.4,421.8 620.1,421.8 620.1,322.5 379.9,322.5 379.9,421.8 417.6,421.8 417.6,467.4 379.9,467.4 379.9,566.7 425.5,566.7 425.5,871.1 469.1,871.1 "
       id="polygon438"
       style="fill:#000000;stroke:#000000;stroke-opacity:1" 
       transform="translate(-242.9389,-237.82896)" /></g></g>
</svg>
