<?xml version="1.0" encoding="utf-8"?>
<!-- Svg Vector Icons : http://www.onlinewebfonts.com/icon -->
<!DOCTYPE svg PUBLIC "-//W3C//DTD SVG 1.1//EN" "http://www.w3.org/Graphics/SVG/1.1/DTD/svg11.dtd">
<svg version="1.1" xmlns="http://www.w3.org/2000/svg" xmlns:xlink="http://www.w3.org/1999/xlink" x="0px" y="0px" viewBox="0 0 1000 1000" enable-background="new 0 0 1000 1000" xml:space="preserve">
<metadata> Svg Vector Icons : http://www.onlinewebfonts.com/icon </metadata>
<g><g><path d="M959.6,844L727.5,646.5c-24-21.6-49.7-31.5-70.4-30.6c54.8-64.2,87.9-147.5,87.9-238.5C745,174.5,580.5,10,377.5,10C174.5,10,10,174.5,10,377.5C10,580.5,174.5,745,377.5,745c91,0,174.3-33.1,238.5-87.9c-1,20.7,9,46.4,30.6,70.4L844,959.6c33.8,37.6,89,40.7,122.7,7C1000.4,933,997.2,877.8,959.6,844z M377.5,622.5c-135.3,0-245-109.7-245-245s109.7-245,245-245c135.3,0,245,109.7,245,245S512.8,622.5,377.5,622.5z M438.8,193.8H316.3v122.5H193.8v122.5h122.5v122.5h122.5V438.8h122.5V316.3H438.8V193.8z"
style="fill:#000000;stroke:#000000;stroke-opacity:1"
/></g><g></g><g></g><g></g><g></g><g></g><g></g><g></g><g></g><g></g><g></g><g></g><g></g><g></g><g></g><g></g></g>
</svg>
